<svg xmlns="http://www.w3.org/2000/svg" width="286.684" height="46.818" viewBox="0 0 286.684 46.818"><defs><style>.a{fill:#fff;}.b{fill:#f6def6;}.c{fill:#ddd8ec;}.d{fill:#b8a3e6;}</style></defs><g transform="translate(-280 -9.421)"><path class="a" d="M35.6,46.7h0c-4.9.632-9.5-1.976-10.4-5.848l-7-32.561C17.4,4.422,20.7.786,25.6.075h0C30.5-.557,35.1,2.051,36,5.923l7,32.561C43.8,42.357,40.5,45.993,35.6,46.7Z" transform="translate(279.958 9.441)"/><path class="a" d="M60.7,46.7h0c-4.9.632-9.5-1.976-10.4-5.848l-7-32.561C42.4,4.422,45.7.786,50.6.075h0C55.5-.557,60.1,2.051,61,5.923l7,32.561C68.9,42.357,65.6,45.993,60.7,46.7Z" transform="translate(279.958 9.441)"/><path class="b" d="M5.4,46.141h0c-4.5-1.58-6.6-5.767-4.6-9.4L18.9,4.274C20.9.72,26.2-.939,30.8.641h0c4.5,1.58,6.6,5.767,4.6,9.4L17.2,42.508C15.2,46.141,9.9,47.721,5.4,46.141Z" transform="translate(279.958 9.441)"/><path class="c" d="M30.4,46.141h0c-4.5-1.58-6.6-5.767-4.6-9.4L43.9,4.274C45.9.72,51.2-.939,55.8.641h0c4.5,1.58,6.6,5.767,4.6,9.4L42.3,42.508C40.2,46.141,34.9,47.721,30.4,46.141Z" transform="translate(279.958 9.441)"/><path class="d" d="M55.4,46.141h0c-4.5-1.58-6.6-5.767-4.6-9.4L69,4.274C71,.72,76.3-.939,80.9.641h0c4.5,1.58,6.6,5.767,4.6,9.4L67.3,42.508C65.3,46.141,60,47.721,55.4,46.141Z" transform="translate(280.352 9.441)"/><g transform="translate(365.584 20.191)"><path class="a" d="M101.4,18.5a.576.576,0,0,1,.6-.6h.4c.4,0,.6.1.7.5l7.4,15.9c.6,1.3,1.3,2.9,1.3,2.9h.1s.7-1.7,1.3-2.9l7.4-15.9a.752.752,0,0,1,.7-.5h.4a.53.53,0,0,1,.6.6l2,24.8c0,.4-.2.7-.6.7h-.3a.53.53,0,0,1-.6-.6l-1.6-19.3c-.1-1.3-.1-3.5-.1-3.5H121s-.7,2.2-1.3,3.5L113,38.5a.752.752,0,0,1-.7.5h-.6c-.4,0-.6-.1-.7-.5l-6.7-14.4c-.6-1.2-1.4-3.5-1.4-3.5h-.1s0,2.3-.1,3.5L101,43.5a.576.576,0,0,1-.6.6H100c-.4,0-.6-.2-.6-.7Z" transform="translate(-99.4 -17.5)"/><path class="a" d="M137.5,18.5a.64.64,0,0,1,.7-.5h.7a.64.64,0,0,1,.7.5l9.3,24.8c.1.4,0,.7-.5.7H148a.64.64,0,0,1-.7-.5L144,35H133l-3.2,8.5a.64.64,0,0,1-.7.5h-.4c-.5,0-.7-.3-.5-.7Zm6,15-4-10.6c-.4-1.1-1-3.1-1-3.1h-.1s-.6,2-1,3.1l-4,10.6Z" transform="translate(-99.4 -17.5)"/><path class="a" d="M157.4,32.7l-8.4-14c-.3-.4-.1-.7.4-.7h.4a.67.67,0,0,1,.7.4l5.9,9.9c.7,1.3,1.6,2.9,1.6,2.9h.1a27.1,27.1,0,0,1,1.6-2.9l5.9-9.9a.755.755,0,0,1,.7-.4h.4c.5,0,.7.3.4.7l-8.4,14V43.4a.53.53,0,0,1-.6.6H158a.53.53,0,0,1-.6-.6Z" transform="translate(-99.4 -17.5)"/><path class="a" d="M172.2,18.6a.53.53,0,0,1,.6-.6h.4a.909.909,0,0,1,.8.4l14.6,20.1c.9,1.2,2.1,3.3,2.1,3.3h.1s-.2-2-.2-3.3V18.6a.53.53,0,0,1,.6-.6h.3a.53.53,0,0,1,.6.6V43.4a.53.53,0,0,1-.6.6h-.4a.909.909,0,0,1-.8-.4L175.7,23.5c-.9-1.2-2.1-3.3-2.1-3.3h-.1s.2,2,.2,3.3V43.3a.53.53,0,0,1-.6.6h-.3a.53.53,0,0,1-.6-.6Z" transform="translate(-99.4 -17.5)"/><path class="a" d="M211.3,17.5a13.024,13.024,0,0,1,13.2,13.3c0,7.7-5.7,13.7-13.2,13.7s-13.2-6-13.2-13.7A13.024,13.024,0,0,1,211.3,17.5Zm0,25.5c6.6,0,11.5-5.3,11.5-12.2,0-6.7-4.9-11.8-11.5-11.8s-11.5,5.1-11.5,11.8C199.8,37.7,204.7,43,211.3,43Z" transform="translate(-99.4 -17.5)"/><path class="a" d="M241.8,17.5A13.024,13.024,0,0,1,255,30.8c0,7.7-5.7,13.7-13.2,13.7s-13.2-6-13.2-13.7A13.024,13.024,0,0,1,241.8,17.5Zm0,25.5c6.6,0,11.5-5.3,11.5-12.2,0-6.7-4.9-11.8-11.5-11.8s-11.5,5.1-11.5,11.8C230.3,37.7,235.2,43,241.8,43Z" transform="translate(-99.4 -17.5)"/><path class="a" d="M265.4,19.4h-9.1a.53.53,0,0,1-.6-.6v-.2a.53.53,0,0,1,.6-.6h19.8a.53.53,0,0,1,.6.6v.2a.53.53,0,0,1-.6.6H267v24a.53.53,0,0,1-.6.6H266a.53.53,0,0,1-.6-.6Z" transform="translate(-99.4 -17.5)"/><path class="a" d="M280.8,18.6a.53.53,0,0,1,.6-.6h.3a.53.53,0,0,1,.6.6V30.2H299V18.6a.53.53,0,0,1,.6-.6h.3a.53.53,0,0,1,.6.6V43.4a.53.53,0,0,1-.6.6h-.3a.53.53,0,0,1-.6-.6V31.7H282.4V43.4a.53.53,0,0,1-.6.6h-.3a.53.53,0,0,1-.6-.6V18.6Z" transform="translate(-99.4 -17.5)"/></g></g></svg>