<svg xmlns="http://www.w3.org/2000/svg" width="176.944" height="95.648" viewBox="0 0 176.944 95.648"><defs><style>.a{fill:#fff;}.b{fill:#f6def6;}.c{fill:#ddd8ec;}.d{fill:#b8a3e6;}</style></defs><path class="a" d="M53.873,95.436h0C43.862,96.727,34.464,91.4,32.626,83.488l-14.3-66.522C16.69,9.054,23.432,1.627,33.443.173h0C43.453-1.118,52.851,4.21,54.69,12.122l14.3,66.522C70.625,86.555,63.883,93.983,53.873,95.436Z" transform="translate(18.773 0.02)"/><path class="a" d="M79,95.436h0C68.992,96.727,59.594,91.4,57.755,83.488l-14.3-66.522C41.616,9.054,48.358,1.627,58.368.173h0C68.379-1.118,77.777,4.21,79.615,12.122l14.3,66.522C95.755,86.555,89.013,93.983,79,95.436Z" transform="translate(44.922 0.02)"/><path class="b" d="M10.989,94.223h0C1.8,91-2.495,82.442,1.591,75.018L38.569,8.689C42.655,1.427,53.483-1.962,62.881,1.266h0c9.193,3.228,13.484,11.781,9.4,19.2L35.1,86.8C31.01,94.223,20.182,97.45,10.989,94.223Z" transform="translate(-0.042 0.083)"/><path class="c" d="M35.989,94.223h0C26.8,91,22.505,82.442,26.591,75.018L63.569,8.689C67.655,1.427,78.483-1.962,87.881,1.266h0c9.193,3.228,13.484,11.781,9.4,19.2L60.3,86.8C56.01,94.223,45.182,97.45,35.989,94.223Z" transform="translate(26.033 0.083)"/><path class="d" d="M60.989,94.223h0C51.8,91,47.505,82.442,51.591,75.018L88.773,8.689c4.086-7.262,14.914-10.651,24.312-7.424h0c9.193,3.228,13.484,11.781,9.4,19.2L85.3,86.8C81.214,94.223,70.387,97.45,60.989,94.223Z" transform="translate(52.912 0.083)"/></svg>