<svg xmlns="http://www.w3.org/2000/svg" width="297.75" height="174.149" viewBox="0 0 297.75 174.149"><defs><style>.a{fill:#fff;}.b{fill:#f6def6;}.c{fill:#ddd8ec;}.d{fill:#b8a3e6;}</style></defs><g transform="translate(-811.584 -3924.591)"><g transform="translate(872 3924.591)"><path class="a" d="M53.873,95.436h0C43.862,96.727,34.464,91.4,32.626,83.488l-14.3-66.522C16.69,9.054,23.432,1.627,33.443.173h0C43.453-1.118,52.851,4.21,54.69,12.122l14.3,66.522C70.625,86.555,63.883,93.983,53.873,95.436Z" transform="translate(18.773 0.02)"/><path class="a" d="M79,95.436h0C68.992,96.727,59.594,91.4,57.755,83.488l-14.3-66.522C41.616,9.054,48.358,1.627,58.368.173h0C68.379-1.118,77.777,4.21,79.615,12.122l14.3,66.522C95.755,86.555,89.013,93.983,79,95.436Z" transform="translate(44.922 0.02)"/><path class="b" d="M10.989,94.223h0C1.8,91-2.495,82.442,1.591,75.018L38.569,8.689C42.655,1.427,53.483-1.962,62.881,1.266h0c9.193,3.228,13.484,11.781,9.4,19.2L35.1,86.8C31.01,94.223,20.182,97.45,10.989,94.223Z" transform="translate(-0.042 0.083)"/><path class="c" d="M35.989,94.223h0C26.8,91,22.505,82.442,26.591,75.018L63.569,8.689C67.655,1.427,78.483-1.962,87.881,1.266h0c9.193,3.228,13.484,11.781,9.4,19.2L60.3,86.8C56.01,94.223,45.182,97.45,35.989,94.223Z" transform="translate(26.033 0.083)"/><path class="d" d="M60.989,94.223h0C51.8,91,47.505,82.442,51.591,75.018L88.773,8.689c4.086-7.262,14.914-10.651,24.312-7.424h0c9.193,3.228,13.484,11.781,9.4,19.2L85.3,86.8C81.214,94.223,70.387,97.45,60.989,94.223Z" transform="translate(52.912 0.083)"/></g><g transform="translate(811.584 4056)"><path class="a" d="M102.361,18.85a.882.882,0,0,1,.888-.95h.592c.592,0,.888.158,1.036.791l10.956,25.169c.888,2.058,1.925,4.591,1.925,4.591h.148s1.036-2.691,1.925-4.591l10.956-25.169a1.121,1.121,0,0,1,1.036-.791h.592q.888,0,.888.95l2.961,39.258c0,.633-.3,1.108-.888,1.108h-.444q-.888,0-.888-.95l-2.369-30.551c-.148-2.058-.148-5.54-.148-5.54h-.148s-1.036,3.483-1.925,5.54l-9.92,22.795a1.121,1.121,0,0,1-1.036.791h-.888c-.592,0-.888-.158-1.036-.791l-9.92-22.795c-.888-1.9-2.073-5.54-2.073-5.54h-.148s0,3.641-.148,5.54l-2.517,30.71a.882.882,0,0,1-.888.95h-.592c-.592,0-.888-.317-.888-1.108Z" transform="translate(-99.4 -17.267)"/><path class="a" d="M142.006,18.791A.954.954,0,0,1,143.043,18h1.036a.954.954,0,0,1,1.036.791l13.77,39.258c.148.633,0,1.108-.74,1.108h-.592a.954.954,0,0,1-1.036-.791L151.63,44.911H135.344l-4.738,13.455a.954.954,0,0,1-1.036.791h-.592c-.74,0-1.036-.475-.74-1.108Zm8.884,23.745-5.922-16.78c-.592-1.741-1.481-4.907-1.481-4.907h-.148s-.888,3.166-1.481,4.907l-5.922,16.78Z" transform="translate(-85.595 -17.209)"/><path class="a" d="M161.5,41.27,149.068,19.108c-.444-.633-.148-1.108.592-1.108h.592a.984.984,0,0,1,1.036.633L160.024,34.3c1.036,2.058,2.369,4.591,2.369,4.591h.148A43.915,43.915,0,0,1,164.91,34.3l8.736-15.671A1.1,1.1,0,0,1,174.682,18h.592c.74,0,1.036.475.592,1.108L163.43,41.27V58.207q0,.95-.888.95h-.148q-.888,0-.888-.95Z" transform="translate(-75.63 -17.209)"/><path class="a" d="M172.2,18.95q0-.95.888-.95h.592a1.319,1.319,0,0,1,1.184.633l21.617,31.818c1.333,1.9,3.109,5.224,3.109,5.224h.148s-.3-3.166-.3-5.224V18.95q0-.95.888-.95h.444q.888,0,.888.95V58.207q0,.95-.888.95h-.592A1.319,1.319,0,0,1,199,58.524L177.382,26.706c-1.333-1.9-3.109-5.224-3.109-5.224h-.148s.3,3.166.3,5.224V58.049q0,.95-.888.95h-.444q-.888,0-.888-.95Z" transform="translate(-64.412 -17.209)"/><path class="a" d="M217.644,17.5c11.1,0,19.544,9.181,19.544,21.054,0,12.189-8.439,21.687-19.544,21.687S198.1,50.742,198.1,38.554C198.1,26.681,206.539,17.5,217.644,17.5Zm0,40.366c9.772,0,17.027-8.39,17.027-19.312,0-10.606-7.255-18.679-17.027-18.679s-17.027,8.073-17.027,18.679C200.617,49.476,207.872,57.866,217.644,57.866Z" transform="translate(-51.964 -17.5)"/><path class="a" d="M248.144,17.5c11.1,0,19.544,9.181,19.544,21.054,0,12.189-8.439,21.687-19.544,21.687S228.6,50.742,228.6,38.554C228.6,26.681,237.039,17.5,248.144,17.5Zm0,40.366c9.772,0,17.027-8.39,17.027-19.312,0-10.606-7.255-18.679-17.027-18.679s-17.027,8.073-17.027,18.679C231.117,49.476,238.372,57.866,248.144,57.866Z" transform="translate(-37.306 -17.5)"/><path class="a" d="M270.062,20.216H256.588q-.888,0-.888-.95V18.95q0-.95.888-.95H285.9q.888,0,.888.95v.317q0,.95-.888.95H272.431V58.207q0,.95-.888.95h-.592q-.888,0-.888-.95Z" transform="translate(-24.282 -17.209)"/><path class="a" d="M280.8,18.95q0-.95.888-.95h.444q.888,0,.888.95V37.312h24.726V18.95q0-.95.888-.95h.444q.888,0,.888.95V58.207q0,.95-.888.95h-.444q-.888,0-.888-.95V39.687H283.169V58.207q0,.95-.888.95h-.444q-.888,0-.888-.95V18.95Z" transform="translate(-12.218 -17.209)"/></g></g></svg>