<svg xmlns="http://www.w3.org/2000/svg" width="32" height="32" viewBox="0 0 32 32"><defs><style>.a{fill:#43283a;}.b{fill:#fff;}</style></defs><g transform="translate(0 -0.016)"><path class="a" d="M16,.016a16,16,0,1,0,16,16A16,16,0,0,0,16,.016Z"/><path class="b" d="M24.007,12.481c0,4.658-2.59,8.139-6.407,8.139a3.4,3.4,0,0,1-2.9-1.481s-.69,2.736-.835,3.264a12.669,12.669,0,0,1-2.144,3.886.158.158,0,0,1-.282-.068,13.314,13.314,0,0,1,.036-4.513C11.7,20.744,13,15.237,13,15.237a4.564,4.564,0,0,1-.379-1.879c0-1.76,1.02-3.074,2.29-3.074a1.589,1.589,0,0,1,1.6,1.782,25.457,25.457,0,0,1-1.048,4.214,1.838,1.838,0,0,0,1.874,2.288c2.25,0,3.765-2.89,3.765-6.314,0-2.6-1.752-4.551-4.941-4.551a5.624,5.624,0,0,0-5.846,5.687,3.425,3.425,0,0,0,.784,2.329.576.576,0,0,1,.17.662c-.058.219-.187.744-.243.953a.409.409,0,0,1-.594.3C8.775,16.954,8,15.136,8,13.094c0-3.373,2.845-7.418,8.487-7.418C21.024,5.679,24.007,8.959,24.007,12.481Z"/></g></svg>