<svg xmlns="http://www.w3.org/2000/svg" width="51.146" height="27.647" viewBox="0 0 51.146 27.647"><defs><style>.a{fill:#fff;}.b{fill:#f6def6;}.c{fill:#ddd8ec;}.d{fill:#b8a3e6;}</style></defs><g transform="translate(-169.928 -52.531)"><path class="a" d="M28.426,27.572h0c-2.894.373-5.61-1.167-6.141-3.454L18.151,4.89C17.679,2.6,19.627.456,22.521.036h0c2.894-.373,5.61,1.167,6.141,3.454L32.8,22.718C33.268,25,31.32,27.152,28.426,27.572Z" transform="translate(162.5 52.55)"/><path class="a" d="M53.515,27.572h0c-2.894.373-5.61-1.167-6.141-3.454L43.239,4.89C42.708,2.6,44.657.456,47.55.036h0C50.444-.337,53.16,1.2,53.692,3.49l4.134,19.228C58.357,25,56.408,27.152,53.515,27.572Z" transform="translate(152.233 52.55)"/><path class="b" d="M3.206,27.264h0c-2.657-.933-3.9-3.405-2.716-5.551L11.178,2.541C12.359.442,15.489-.538,18.205.4h0c2.657.933,3.9,3.405,2.716,5.551L10.174,25.119C8.993,27.264,5.863,28.2,3.206,27.264Z" transform="translate(169.886 52.525)"/><path class="c" d="M28.206,27.264h0c-2.657-.933-3.9-3.405-2.716-5.551L36.178,2.541C37.359.442,40.489-.538,43.205.4h0c2.657.933,3.9,3.405,2.716,5.551L35.233,25.119C33.993,27.264,30.863,28.2,28.206,27.264Z" transform="translate(159.649 52.525)"/><path class="d" d="M53.206,27.264h0c-2.657-.933-3.9-3.405-2.716-5.551L61.237,2.541C62.418.442,65.548-.538,68.264.4h0c2.657.933,3.9,3.405,2.716,5.551L60.233,25.119C59.052,27.264,55.922,28.2,53.206,27.264Z" transform="translate(149.645 52.525)"/></g></svg>